<?xml version="1.0" encoding="utf-8"?>
<!-- Generated by IcoMoon.io -->
<!DOCTYPE svg PUBLIC "-//W3C//DTD SVG 1.1//EN" "http://www.w3.org/Graphics/SVG/1.1/DTD/svg11.dtd">
<svg version="1.1" xmlns="http://www.w3.org/2000/svg" xmlns:xlink="http://www.w3.org/1999/xlink" width="32" height="32" viewBox="0 0 32 32">
<g id="icomoon-ignore">
</g>
<path d="M21 0v2h-9.979v-2h9.979zM0 0h7v2h-7v-2zM8 0h2.004l-0.004 2h-2v-2zM22 0h2v2h-2v-2zM32 3.005v1.995h-31.998l-0.002-2 32 0.005zM25 0h7v2h-7v-2zM0.002 31.907h31.998v-25.886h-31.998v25.886zM8.891 28.189c-0.945 0-2.048-0.106-2.652-0.288l0.185-1.025c0.498 0.131 1.547 0.236 2.283 0.236 2.571 0 4.538-1.416 4.538-3.779 0-2.046-2.177-3.332-5.403-3.332l0.209-1.025c2.466-0.078 4.617-2.046 4.617-4.041 0-1.6-1.179-2.44-2.991-2.44-1.155 0-2.258 0.422-3.149 0.998l-0.104-0.865c0.76-0.788 2.177-1.497 3.91-1.497 2.832 0 4.486 1.417 4.486 3.437 0 2.047-1.654 3.647-3.28 4.225 2.204 0.394 3.832 1.943 3.832 4.015 0 3.202-2.94 5.38-6.482 5.38h-0zM22.090 27.742c-1.025 0-2.782 0.052-3.438 0.078v-0.735l1.626-0.13c0.631-0.052 0.866-0.261 0.866-2.1v-11.020c0-0.237-0.106-0.446-0.368-0.446-0.184 0-0.55 0.078-0.944 0.183l-1.784 0.498-0.105-0.761 5.144-2.466v14.012c0 1.839 0.289 2.048 0.866 2.1l1.732 0.13v0.735c-0.657-0.025-2.598-0.078-3.595-0.078v-0z" fill="#000000"></path>
</svg>
