<?xml version="1.0" encoding="utf-8"?>
<!-- Generated by IcoMoon.io -->
<!DOCTYPE svg PUBLIC "-//W3C//DTD SVG 1.1//EN" "http://www.w3.org/Graphics/SVG/1.1/DTD/svg11.dtd">
<svg version="1.1" xmlns="http://www.w3.org/2000/svg" xmlns:xlink="http://www.w3.org/1999/xlink" width="32" height="32" viewBox="0 0 32 32">
<g id="icomoon-ignore">
</g>
<path d="M2.511 22h26.985c0.301 0 0.512-0.217 0.512-0.462v-17.074c0-0.272-0.241-0.462-0.512-0.462h-26.985c-0.301 0-0.511 0.218-0.511 0.462v17.047c0 0.272 0.241 0.489 0.511 0.489v0zM4 6h24v14h-24v-14zM10.016 15.904l-1.019-1.108-0.57 0.511 1.618 1.534 2.727-2.556-0.569-0.454-2.188 2.074zM10.016 11.359l-1.019-1.108-0.57 0.511 1.618 1.534 2.727-2.556-0.569-0.483-2.188 2.102zM31.48 23h-30.96c-0.286 0-0.52 0.242-0.52 0.549v0.923c0 0.286 0.234 0.527 0.52 0.527h30.96c0.286 0 0.52-0.242 0.52-0.549v-0.923c-0.026-0.286-0.234-0.527-0.52-0.527z" fill="#000000"></path>
</svg>
