<?xml version="1.0" encoding="utf-8"?>
<!-- Generated by IcoMoon.io -->
<!DOCTYPE svg PUBLIC "-//W3C//DTD SVG 1.1//EN" "http://www.w3.org/Graphics/SVG/1.1/DTD/svg11.dtd">
<svg version="1.1" xmlns="http://www.w3.org/2000/svg" xmlns:xlink="http://www.w3.org/1999/xlink" width="32" height="32" viewBox="0 0 32 32">
<g id="icomoon-ignore">
</g>
<path d="M28.718 8.011v0.012l-11.663 12.342-2.070-3.435c-0.596 1.401-1.753 2.512-3.19 3.061l5.061 4.605 15.822-12.841v-7.921l-0.573 0.601-3.388 3.576z" fill="#000000"></path>
<path d="M-0.957-0.788v33.683h33.638v-19.888l-0.573 0.463-6.744 5.471 0.865 0.864-8.919 8.93-7.772-7.773c-3.495-0.046-6.311-2.897-6.311-6.404 0-3.541 2.865-6.404 6.405-6.404 2.817 0 5.202 1.81 6.067 4.335l1.612-1.6 3.765 3.763 11.604-12.22v-3.22h-33.636z" fill="#000000"></path>
<path d="M12.97 11.18c-0.865-0.865-2.057-1.402-3.367-1.402-1.319 0-2.51 0.538-3.377 1.402s-1.392 2.057-1.392 3.379c0 1.308 0.527 2.5 1.392 3.365s2.057 1.402 3.377 1.402c1.31 0 2.502-0.538 3.367-1.402s1.401-2.057 1.401-3.365c0-1.322-0.536-2.514-1.401-3.379z" fill="#000000"></path>
</svg>
