<?xml version="1.0" encoding="utf-8"?>
<!-- Generated by IcoMoon.io -->
<!DOCTYPE svg PUBLIC "-//W3C//DTD SVG 1.1//EN" "http://www.w3.org/Graphics/SVG/1.1/DTD/svg11.dtd">
<svg version="1.1" xmlns="http://www.w3.org/2000/svg" xmlns:xlink="http://www.w3.org/1999/xlink" width="32" height="32" viewBox="0 0 32 32">
<g id="icomoon-ignore">
</g>
<path d="M14.549 16.924c-0.528 0-1.188-0.264-1.583-0.66s-0.66-1.056-0.66-1.583l-3.563 3.563c0.264 0.396 0.528 0.924 0.924 1.32s0.924 0.792 1.451 1.056l3.431-3.695zM27.215 1.882c-2.243-2.243-5.806-2.243-8.049 0l-9.632 9.632c-1.583 1.583-1.979 3.958-1.32 5.938l12.403-12.403c0.924-0.924 2.375-0.924 3.299 0s0.924 2.375 0 3.299l-0.792 1.056-11.347 11.611c1.979 0.66 4.222 0.264 5.806-1.32l9.632-9.632c2.243-2.375 2.243-5.938 0-8.181v0zM19.167 15.736c0.396 0.396 0.66 1.056 0.66 1.583l3.563-3.563c-0.264-0.528-0.528-0.924-0.924-1.32s-0.924-0.792-1.32-1.056l-3.563 3.695c0.528 0 1.056 0.264 1.583 0.66v0zM23.785 14.549l-5.014 4.882-7.389 7.389c-0.924 0.924-2.375 0.924-3.299 0s-0.924-2.375 0-3.299l2.771-2.771 6.465-6.729 2.903-2.903c-1.979-0.66-4.222-0.264-5.806 1.32l-9.632 9.632c-2.243 2.243-2.243 5.806 0 8.049s5.806 2.243 8.049 0l9.632-9.632c1.583-1.715 1.979-3.958 1.32-5.938v0z" fill="#000000"></path>
</svg>
