<?xml version="1.0" encoding="utf-8"?>
<!-- Generated by IcoMoon.io -->
<!DOCTYPE svg PUBLIC "-//W3C//DTD SVG 1.1//EN" "http://www.w3.org/Graphics/SVG/1.1/DTD/svg11.dtd">
<svg version="1.1" xmlns="http://www.w3.org/2000/svg" xmlns:xlink="http://www.w3.org/1999/xlink" width="32" height="32" viewBox="0 0 32 32">
<g id="icomoon-ignore">
</g>
<path d="M24.197 5.206v6.355c0 2.774-0.593 4.221-1.826 5.43-1.257 1.257-2.917 1.921-5.24 1.921-3.723 0-6.355-2.348-6.355-6.118v-5.264c0-1.518-0.047-4.576-0.166-5.715 0.948 0 1.802-0.024 2.585-0.119-0.071 0.688-0.095 2.585-0.095 3.509v6.829c0 3.533 1.755 4.814 4.481 4.814 2.703 0 4.292-1.66 4.292-4.316v-5.003c0-1.518-0.047-4.576-0.19-5.715 0.948 0 1.826-0.024 2.632-0.119-0.095 0.688-0.119 2.585-0.119 3.509zM2.662 22.43c0.42-0.93 0.697-1.56 0.941-2.191l0.708-0.089 2.589 5.688c0.321 0.697 0.73 1.593 1.073 2.257l-1.538 0.089-0.896-2.069h-3.132l-0.011 0.033c-0.221 0.542-0.564 1.416-0.786 1.948h-1.505l2.556-5.666zM2.828 25.085h2.279l-1.14-2.7-1.14 2.7zM11.44 24.322c-0.387-0.321-0.852-0.476-1.328-0.476-0.918 0-1.549 0.719-1.549 1.638 0 1.129 0.775 1.715 1.627 1.715 0.586 0 0.996-0.166 1.516-0.631l-0.044 1.25c-0.553 0.332-0.985 0.476-1.693 0.476-1.616 0-2.722-1.173-2.722-2.634 0-1.627 1.162-2.91 2.822-2.91 0.598 0 1.217 0.177 1.671 0.498l-0.299 1.073zM16.562 24.322c-0.387-0.321-0.852-0.476-1.328-0.476-0.918 0-1.549 0.719-1.549 1.638 0 1.129 0.775 1.715 1.627 1.715 0.586 0 0.996-0.166 1.516-0.631l-0.044 1.25c-0.553 0.332-0.985 0.476-1.693 0.476-1.616 0-2.722-1.173-2.722-2.634 0-1.627 1.162-2.91 2.822-2.91 0.598 0 1.217 0.177 1.671 0.498l-0.299 1.073zM21.681 25.727l-3.054 0.088c0.078 0.93 0.575 1.405 1.505 1.405 0.808 0 1.405-0.321 1.914-0.697l-0.033 1.151c-0.598 0.387-1.25 0.62-2.025 0.62-1.793 0-2.656-1.228-2.656-2.656 0-1.638 1.073-2.888 2.7-2.888 1.571 0 2.246 1.151 2.246 2.567l-0.598 0.409zM21.072 24.953c-0.089-0.775-0.409-1.195-1.096-1.195-0.741 0-1.217 0.542-1.328 1.273l2.423-0.078zM26.892 23.149l-0.343 1.029c-0.365-0.244-0.819-0.398-1.273-0.398-0.443 0-0.797 0.155-0.797 0.542 0 0.752 2.623 0.598 2.623 2.235 0 1.096-0.941 1.737-2.136 1.737-0.586 0-1.427-0.177-1.859-0.454l0.055-1.173c0.465 0.321 1.184 0.598 1.804 0.598 0.52 0 0.874-0.199 0.874-0.553 0-0.896-2.611-0.631-2.611-2.324 0-0.907 0.786-1.638 1.992-1.638 0.664 0 1.306 0.188 1.671 0.398zM31.445 23.149l-0.343 1.029c-0.365-0.244-0.819-0.398-1.273-0.398-0.443 0-0.797 0.155-0.797 0.542 0 0.752 2.623 0.598 2.623 2.235 0 1.096-0.941 1.737-2.136 1.737-0.586 0-1.427-0.177-1.859-0.454l0.055-1.173c0.465 0.321 1.184 0.598 1.804 0.598 0.52 0 0.874-0.199 0.874-0.553 0-0.896-2.611-0.631-2.611-2.324 0-0.907 0.786-1.638 1.992-1.638 0.664 0 1.306 0.188 1.671 0.398z" fill="#000000"></path>
</svg>
