<?xml version="1.0" encoding="utf-8"?>
<!-- Generated by IcoMoon.io -->
<!DOCTYPE svg PUBLIC "-//W3C//DTD SVG 1.1//EN" "http://www.w3.org/Graphics/SVG/1.1/DTD/svg11.dtd">
<svg version="1.1" xmlns="http://www.w3.org/2000/svg" xmlns:xlink="http://www.w3.org/1999/xlink" width="32" height="32" viewBox="0 0 32 32">
<g id="icomoon-ignore">
</g>
<path d="M14.293 14.4h-2.213v-0.56h-0.027c-0.24 0.32-0.96 0.747-2.080 0.747-1.253 0-2.213-0.56-2.213-1.947v-3.253h2.293v2.667c0 0.64 0.347 0.907 0.88 0.907 0.72 0 1.067-0.453 1.067-1.2v-2.373h2.293v5.013zM15.68 10.907c0.133-0.693 0.427-1.12 0.987-1.36 0.56-0.267 1.387-0.347 2.587-0.347 2.347 0 3.253 0.533 3.253 2.027v2.427c0 0.373 0.107 0.613 0.213 0.773h-2.347c-0.053-0.133-0.080-0.32-0.080-0.507-0.507 0.48-1.28 0.693-2.507 0.693-1.547 0-2.507-0.4-2.507-1.707 0-0.907 0.64-1.493 2.347-1.573l1.92-0.080c0.453-0.027 0.613-0.133 0.613-0.4 0-0.32-0.4-0.48-1.067-0.48-0.533 0-1.040 0.080-1.147 0.56h-2.267zM20.24 12.107c-0.373 0.107-1.040 0.16-1.84 0.213-0.427 0.027-0.613 0.187-0.613 0.507 0 0.347 0.293 0.56 0.853 0.56 0.773 0 1.627-0.187 1.627-1.040v-0.24zM3.52 16.933c0-0.16-0.107-0.293-0.24-0.4-0.107-0.107-0.267-0.16-0.427-0.16-0.267 0-0.587 0.053-0.587 0.4 0 0.16 0.107 0.213 0.24 0.267 0.32 0.133 1.067 0.187 1.733 0.4s1.227 0.587 1.227 1.44c0 1.44-1.36 1.813-2.613 1.813-1.2 0-2.533-0.48-2.56-1.813h1.867c0 0.187 0.080 0.32 0.24 0.453 0.107 0.080 0.293 0.16 0.533 0.16 0.267 0 0.667-0.107 0.667-0.4s-0.16-0.4-1.093-0.533c-1.493-0.267-2.107-0.747-2.107-1.627 0-1.307 1.413-1.627 2.427-1.627 1.12 0 2.453 0.32 2.507 1.627h-1.813zM11.68 19.44c0 0.4 0.027 0.827 0.24 1.147h-2c-0.053-0.133-0.080-0.347-0.080-0.48h-0.027c-0.427 0.48-1.013 0.613-1.653 0.613-0.987 0-1.813-0.48-1.813-1.547 0-1.627 1.92-1.573 2.907-1.76 0.267-0.053 0.533-0.133 0.533-0.453 0-0.347-0.32-0.48-0.64-0.48-0.613 0-0.72 0.32-0.747 0.533h-1.84c0.027-0.72 0.4-1.147 0.907-1.387s1.147-0.293 1.76-0.293c2.453 0 2.453 1.013 2.453 2.027v2.080zM9.813 18.267c-0.24 0.107-0.507 0.187-0.773 0.24-0.427 0.107-0.667 0.213-0.667 0.56 0 0.24 0.267 0.48 0.613 0.48 0.453 0 0.8-0.267 0.827-0.8v-0.48zM16.48 20.587h-2.32l-1.68-5.147h2.080l0.8 3.147h0.027l0.827-3.147h2l-1.733 5.147zM22.933 20.587h-2.32l-1.68-5.147h2.080l0.8 3.147h0.027l0.827-3.147h2l-1.733 5.147zM29.493 20.187c-0.16 0.453-0.347 1.040-0.64 1.44-0.507 0.64-1.307 0.64-2.080 0.64h-0.907v-1.573h0.453c0.187 0 0.453 0.027 0.587-0.053 0.107-0.053 0.187-0.16 0.187-0.4s-0.747-2.133-0.853-2.453l-0.88-2.373h2.107l0.827 2.96h0.027l0.827-2.96h2.027l-1.68 4.773z" fill="#000000"></path>
</svg>
