<?xml version="1.0" encoding="utf-8"?>
<!-- Generated by IcoMoon.io -->
<!DOCTYPE svg PUBLIC "-//W3C//DTD SVG 1.1//EN" "http://www.w3.org/Graphics/SVG/1.1/DTD/svg11.dtd">
<svg version="1.1" xmlns="http://www.w3.org/2000/svg" xmlns:xlink="http://www.w3.org/1999/xlink" width="32" height="32" viewBox="0 0 32 32">
<g id="icomoon-ignore">
</g>
<path d="M17.421 16.017l14.313-14.316c0.403-0.4 0.403-1.001 0-1.402-0.4-0.4-1.001-0.4-1.398 0l-14.318 14.316-14.314-14.314c-0.401-0.4-1.003-0.4-1.402 0-0.401 0.401-0.401 1.003 0 1.402l14.316 14.316-14.316 14.314c-0.4 0.4-0.4 1.001 0 1.402 0.2 0.198 0.468 0.265 0.734 0.265s0.535-0.067 0.668-0.265l14.314-14.316 14.314 14.316c0.2 0.198 0.468 0.265 0.734 0.265s0.535-0.067 0.668-0.265c0.4-0.403 0.4-1.004 0-1.402l-14.313-14.316z" fill="#000000"></path>
</svg>
