<svg xmlns="http://www.w3.org/2000/svg" xmlns:xlink="http://www.w3.org/1999/xlink" width="547" height="13.123" viewBox="0 0 547 13.123"><defs><path id="a" d="M-15 13l562 .123V0L-15 .755z"/></defs><clipPath id="b"><use xlink:href="#a" overflow="visible"/></clipPath><g clip-path="url(#b)"><defs><path id="c" d="M-37-86.837h612v695.02H-37z"/></defs><clipPath id="e"><use xlink:href="#c" overflow="visible"/></clipPath><defs><filter id="d" filterUnits="userSpaceOnUse" x="-31" y="-7.857" width="593.71" height="581.606"><feColorMatrix values="1 0 0 0 0 0 1 0 0 0 0 0 1 0 0 0 0 0 1 0"/></filter></defs><mask maskUnits="userSpaceOnUse" x="-31" y="-7.857" width="593.71" height="581.606" id="i"><g filter="url(#d)"><path clip-path="url(#e)" d="M-11.487.536H549.71v492.48H-11.487z"/><g enable-background="new"><defs><path id="f" d="M-11.487.536H549.71v492.48H-11.487z"/></defs><clipPath id="g" clip-path="url(#e)"><use xlink:href="#f" overflow="visible"/></clipPath><linearGradient id="h" gradientUnits="userSpaceOnUse" x1="-42.007" y1="765.83" x2="-41.007" y2="765.83" gradientTransform="matrix(-635.0427 0 0 635.0427 -26104.795 -486080.72)"><stop offset="0" stop-color="#FFF"/><stop offset="1"/></linearGradient><path clip-path="url(#g)" fill="url(#h)" d="M-63.11-8.765h635.04v525.03H-63.11z"/></g></g></mask><g clip-path="url(#e)" mask="url(#i)"><defs><path id="j" d="M-30.487 23.735H553V-7.857H-31"/></defs><clipPath id="k"><use xlink:href="#j" overflow="visible"/></clipPath><path clip-path="url(#k)" fill="#B5BDC1" d="M16.573 12.848L2.543.536l-14.03 12.312M44.633 12.848L30.603.536l-14.03 12.312"/><path clip-path="url(#k)" fill="#B5BDC1" d="M72.693 12.848L58.663.536l-14.03 12.312M100.753 12.848L86.723.536l-14.03 12.312"/><path clip-path="url(#k)" fill="#B5BDC1" d="M128.812 12.848L114.782.536l-14.03 12.312M156.872 12.848L142.842.536l-14.03 12.312"/><path clip-path="url(#k)" fill="#B5BDC1" d="M184.932 12.848L170.902.536l-14.03 12.312M212.992 12.848L198.962.536l-14.03 12.312M241.052 12.848L227.022.536l-14.03 12.312M269.11 12.848L255.08.536l-14.028 12.312M297.172 12.848L283.142.536l-14.03 12.312"/><path clip-path="url(#k)" fill="#B5BDC1" d="M325.23 12.848L311.2.536l-14.03 12.312M353.29 12.848L339.26.536l-14.03 12.312M381.35 12.848L367.32.536l-14.03 12.312M409.41 12.848L395.38.536l-14.03 12.312M437.47 12.848L423.44.536l-14.03 12.312M465.53 12.848L451.5.536l-14.03 12.312M493.59 12.848L479.56.536l-14.03 12.312M521.65 12.848L507.62.536l-14.03 12.312M549.71 12.848L535.68.536l-14.03 12.312M562.71 118.207l-14.03-12.312M562.71 499.877v-12.313l-14.03 12.313M562.71 512.19l-14.03-12.313M562.71 524.5v-12.31l-14.03 12.31M562.71 536.813L548.68 524.5M562.71 549.125v-12.312l-14.03 12.312M1.513 573.75h14.03M562.71 561.437l-14.03-12.312M15.543 573.75h28.06M43.603 573.75h28.06M71.663 573.75h28.06M99.723 573.75h28.06M127.782 573.75h28.06M155.842 573.75h28.06M183.902 573.75h28.06M211.962 573.75h28.06M240.02 573.75h28.062M268.082 573.75h28.06M296.142 573.75h28.06M324.2 573.75h28.06M352.26 573.75h28.06M380.32 573.75h28.06M408.38 573.75h28.06M436.44 573.75h28.06M464.5 573.75h28.06M492.56 573.75h28.06M520.62 573.75h28.06M562.71 573.75v-12.313l-14.03 12.312"/></g></g></svg>