<?xml version="1.0" encoding="utf-8"?>
<!-- Generated by IcoMoon.io -->
<!DOCTYPE svg PUBLIC "-//W3C//DTD SVG 1.1//EN" "http://www.w3.org/Graphics/SVG/1.1/DTD/svg11.dtd">
<svg version="1.1" xmlns="http://www.w3.org/2000/svg" xmlns:xlink="http://www.w3.org/1999/xlink" width="32" height="32" viewBox="0 0 32 32">
<g id="icomoon-ignore">
</g>
<path d="M0.529 4.647h1.085l0.723 2.003c0.139 0.334 0.278 0.89 0.278 0.89s0.139-0.557 0.306-0.89l0.974-2.031h0.111l0.974 2.031c0.167 0.334 0.306 0.89 0.306 0.89s0.139-0.557 0.278-0.89l0.724-2.003h1.002l-1.837 5.036h-0.111l-1.141-2.393c-0.139-0.278-0.278-0.751-0.278-0.751s-0.167 0.473-0.278 0.751l-1.169 2.393h-0.111l-1.837-5.036zM7.847 4.647h1.030v4.981h-1.030v-4.981zM9.795 4.647v4.981h3.339v-0.89h-2.282v-4.090zM15.304 8.737c1.113 0 1.614-0.668 1.614-1.586s-0.501-1.586-1.614-1.586h-0.445v3.172h0.445zM13.802 4.647h1.558c1.558 0 2.643 1.030 2.643 2.477 0 1.475-1.085 2.504-2.644 2.504h-1.558v-4.981zM18.56 7.151c0-1.475 1.141-2.56 2.588-2.56 0.918 0 1.558 0.334 2.003 1.030l-0.779 0.557c-0.25-0.39-0.64-0.64-1.224-0.64-0.918 0-1.53 0.696-1.53 1.614s0.612 1.642 1.53 1.642c0.64 0 1.002-0.306 1.308-0.724l0.807 0.557c-0.445 0.668-1.141 1.085-2.115 1.085-1.447-0.028-2.588-1.113-2.588-2.56zM26.184 8.209l-0.362-0.863c-0.139-0.362-0.306-0.89-0.306-0.89s-0.139 0.529-0.306 0.89l-0.362 0.863h1.336zM25.489 4.619h0.083l2.31 5.037h-1.085l-0.25-0.557h-2.031l-0.223 0.557h-1.002l2.198-5.037zM27.409 4.647v0.89h1.447v4.090h1.030v-4.090h1.447v-0.89zM12.16 11.242h1.809v0.362h-1.391v1.113h1.28v0.362h-1.28v1.503h-0.417zM14.748 12.939c0 0.723 0.39 1.363 1.085 1.363s1.085-0.64 1.085-1.391c0-0.668-0.362-1.363-1.085-1.363s-1.085 0.668-1.085 1.391zM17.391 12.884c0 1.141-0.696 1.753-1.558 1.753-0.89 0-1.53-0.696-1.53-1.697 0-1.057 0.668-1.753 1.558-1.753 0.918 0 1.53 0.696 1.53 1.697zM18.282 12.828h0.445c0.473 0 0.751-0.25 0.751-0.64 0-0.417-0.306-0.612-0.779-0.612-0.223 0-0.362 0.028-0.417 0.028v1.224zM17.837 11.297c0.223-0.056 0.529-0.083 0.835-0.083 0.473 0 0.779 0.083 0.974 0.278 0.167 0.139 0.278 0.39 0.278 0.64 0 0.445-0.278 0.724-0.64 0.863v0.028c0.25 0.083 0.417 0.334 0.501 0.668 0.111 0.473 0.195 0.779 0.25 0.918h-0.445c-0.056-0.083-0.139-0.39-0.223-0.807-0.111-0.473-0.278-0.64-0.668-0.64h-0.417v1.447h-0.445v-3.311zM0.696 16.167v11.075h7.374v-2.003h-5.064v-9.071zM9.962 16.167h2.31v11.075h-2.31v-11.075zM14.637 16.167v11.075h2.31v-3.367h4.48v-2.031h-4.48v-3.673h4.925v-2.003zM23.791 16.167v11.075h7.652v-2.003h-5.343v-1.586h4.508v-1.948h-4.508v-3.534h5.12v-2.003zM1.002 12.577h9.656v0.306h-9.656v-0.306zM21.176 12.577h9.656v0.306h-9.656v-0.306z" fill="#000000"></path>
</svg>
