<?xml version="1.0" encoding="utf-8"?>
<!-- Generated by IcoMoon.io -->
<!DOCTYPE svg PUBLIC "-//W3C//DTD SVG 1.1//EN" "http://www.w3.org/Graphics/SVG/1.1/DTD/svg11.dtd">
<svg version="1.1" xmlns="http://www.w3.org/2000/svg" xmlns:xlink="http://www.w3.org/1999/xlink" width="32" height="32" viewBox="0 0 32 32">
<g id="icomoon-ignore">
</g>
<path d="M15.814 14.209c-0.745 0.004-1.344 0.61-1.342 1.354 0.004 0.745 0.61 1.344 1.354 1.341 0.743-0.004 1.344-0.61 1.34-1.355-0.003-0.743-0.61-1.344-1.353-1.34v0zM20 4.021l-7.997-2.021 0.001 20.711c0.174 0.056 0.431 0.142 0.609 0.184l-0.259 1.091c-0.195-0.045-0.161-0.049-0.351-0.108l-0.003 4.123 8.001 2-0.001-25.98zM13.61 24.184c-0.213-0.017-0.424-0.042-0.636-0.075l0.177-1.106c0.179 0.028 0.359 0.050 0.542 0.063l-0.083 1.119h0zM14.247 24.205l-0.008-1.121c0.182-0.001 0.364-0.010 0.547-0.025l0.099 1.117c-0.213 0.018-0.425 0.028-0.637 0.029l0-0zM15.517 24.091l-0.194-1.103c0.177-0.032 0.355-0.069 0.534-0.116l0.282 1.085c-0.207 0.054-0.415 0.099-0.623 0.134v0zM16.745 23.775l-0.362-1.061c0.172-0.059 0.342-0.125 0.514-0.197l0.441 1.030c-0.198 0.084-0.395 0.161-0.593 0.228v0zM18.457 22.975c-0.183 0.109-0.365 0.211-0.548 0.305l-0.511-0.998c0.161-0.084 0.325-0.172 0.487-0.27l0.573 0.963zM18.569 15.642c-0.008 0.289-0.062 0.567-0.153 0.828-0.578 1.931-2.57 4.457-2.57 4.457s-2.016-2.507-2.612-4.432c-0.095-0.259-0.15-0.537-0.161-0.826-0.001-0.033-0.003-0.066-0.003-0.098-0.008-1.519 1.219-2.757 2.737-2.764s2.758 1.219 2.764 2.738c0 0.033 0 0.066-0.001 0.098l0-0zM30.021 2l-8.013 2-0.007 26.001 7.999-2 0.021-26.001zM22.614 19.693l-0.549-0.98c0.197-0.109 0.389-0.204 0.58-0.288l0.448 1.029c-0.158 0.068-0.318 0.147-0.48 0.239h0zM23.588 19.27l-0.329-1.071c0.218-0.068 0.43-0.119 0.64-0.158l0.198 1.103c-0.166 0.031-0.336 0.073-0.509 0.126h-0zM25.13 19.093c-0.112-0.011-0.225-0.014-0.339-0.014l-0.178 0.004-0.056-1.119 0.227-0.006c0.148-0.001 0.295 0.004 0.437 0.015l-0.092 1.119 0 0zM26.153 19.308c-0.163-0.055-0.331-0.103-0.506-0.139l0.229-1.099c0.222 0.046 0.433 0.106 0.635 0.175l-0.359 1.063zM26.644 19.507l0.475-1.015c0.201 0.092 0.392 0.196 0.571 0.301l-0.571 0.965c-0.15-0.089-0.31-0.173-0.475-0.25v0zM27.57 20.055l0.657-0.91c0.189 0.138 0.357 0.273 0.503 0.4l-0.735 0.846c-0.123-0.105-0.265-0.219-0.425-0.336h0zM10.001 1.992l-8 2.009-0.007 10.538 0.654 0.598-0.645 0.699-0.009 14.165 8.007-2 0.001-26.009zM2.342 16.382l0.762-0.822 0.433 0.403-0.761 0.822-0.434-0.402zM3.21 17.186l0.762-0.822 0.433 0.403-0.761 0.822-0.434-0.403zM4.077 17.992l0.762-0.822 0.435 0.401-0.763 0.824-0.434-0.403zM4.945 18.797l0.763-0.822 0.433 0.403-0.763 0.822-0.434-0.403zM5.813 19.601l0.763-0.821 0.434 0.401-0.763 0.822-0.434-0.403zM6.682 20.406l0.763-0.822 0.434 0.404-0.763 0.822-0.433-0.404zM7.538 21.206l0.782-0.804c0.135 0.131 0.274 0.259 0.415 0.383l-0.743 0.84c-0.153-0.136-0.305-0.274-0.454-0.42l-0 0zM8.467 22.023l0.7-0.877c0.146 0.117 0.296 0.231 0.448 0.34l-0.652 0.912c-0.169-0.12-0.334-0.245-0.497-0.375v0z" fill="#000000"></path>
<path d="M18.354 21.713l0.396-0.271 0.635 1.005-0.443 0.214z" fill="#000000"></path>
<path d="M19.104 21.255l0.396-0.271 0.635 1.005-0.443 0.214z" fill="#000000"></path>
<path d="M9.993 21.751l0.402 0.262-0.685 0.972-0.367-0.327z" fill="#000000"></path>
<path d="M29.083 19.811l0.367 0.291-0.702 0.93-0.353-0.342z" fill="#000000"></path>
<path d="M29.831 20.421l0.367 0.291-0.702 0.93-0.353-0.342z" fill="#000000"></path>
</svg>
