<?xml version="1.0" encoding="utf-8"?>
<!-- Generated by IcoMoon.io -->
<!DOCTYPE svg PUBLIC "-//W3C//DTD SVG 1.1//EN" "http://www.w3.org/Graphics/SVG/1.1/DTD/svg11.dtd">
<svg version="1.1" xmlns="http://www.w3.org/2000/svg" xmlns:xlink="http://www.w3.org/1999/xlink" width="32" height="32" viewBox="0 0 32 32">
<g id="icomoon-ignore">
</g>
<path d="M24.143 0h-16.287c-1.042 0-1.857 0.734-1.857 1.61v28.751c0 0.904 0.847 1.61 1.857 1.61h16.287c1.042 0 1.857-0.734 1.857-1.61v-28.751c0-0.904-0.847-1.61-1.857-1.61v0zM16.004 30.569c-1.115 0-1.991-0.781-1.991-1.774s0.876-1.774 1.991-1.774c1.115 0 1.991 0.781 1.991 1.774 0 0.958-0.916 1.774-1.991 1.774zM24 26h-16v-24h16v24zM22.001 4l-12.001 20h12l0.001-20z" fill="#000000"></path>
</svg>
