<?xml version="1.0" encoding="utf-8"?>
<!-- Generated by IcoMoon.io -->
<!DOCTYPE svg PUBLIC "-//W3C//DTD SVG 1.1//EN" "http://www.w3.org/Graphics/SVG/1.1/DTD/svg11.dtd">
<svg version="1.1" xmlns="http://www.w3.org/2000/svg" xmlns:xlink="http://www.w3.org/1999/xlink" width="32" height="32" viewBox="0 0 32 32">
<g id="icomoon-ignore">
</g>
<path d="M10.75 13.113c-1.1-0.6-1.6-1.6-1.8-2.8-0.2-0.8-0.1-1.6 0.3-2.4 0.6-1.2 1.8-1.5 2.8-0.8 1.3 0.9 1.7 2.2 1.8 3.6 0 0.6-0.1 1.2-0.4 1.7-0.6 1-1.7 1.3-2.7 0.7zM14.55 18.512c-0.9-0.6-1.8-0.8-3-0.8s-2.3 0.4-3.2 1.2c-1.2 1.2-1.1 2.8 0.3 3.7 1.1 0.8 2.3 1 3.6 0.7 1-0.2 1.8-0.5 2.5-1.2 1.1-1.1 1-2.6-0.2-3.6zM32 0v32h-32v-32h32zM16.25 17.712c-0.4-0.5-0.8-0.9-1.3-1.3-0.3-0.3-0.8-0.6-1.1-1-0.5-0.5-0.5-0.9 0-1.4 0.3-0.3 0.6-0.5 0.9-0.8 0.7-0.7 1.3-1.4 1.4-2.4 0.1-0.6 0.1-1.2 0-1.8 0-0.9-0.4-1.7-1.3-2.1-0.1 0-0.1 0-0.1-0.1 0.1 0 0.1-0.1 0.2-0.1 0.3-0.1 0.7-0.1 1-0.2s0.7-0.1 1-0.3c0-0.1 0.1-0.2 0.1-0.3s-0.1-0.1-0.2-0.1c-0.8 0-1.7 0-2.5 0-0.6 0-1.3 0-2-0-0.6 0-1.2 0.1-2.1 0.3-0.5 0.1-1.1 0.3-1.6 0.6-2.1 1.1-2.6 2.8-2.3 4.8 0.2 1.7 1.3 2.6 2.9 3 0.5 0.1 0.9 0.1 1.4 0.1 0.2 0 0.3 0.1 0.3 0.3 0 0.6-0.1 1.1 0.5 1.5 0.2 0.1 0.3 0.3 0.2 0.5 0 0.2-0.2 0.1-0.4 0.1-1.4 0-2.8 0.2-4.1 0.9-0.9 0.5-1.6 1.2-1.8 2.2-0.4 1.9 0.5 3.5 2.3 4.2 1.4 0.6 3 0.7 4.5 0.5 1.2-0.2 2.2-0.5 3.2-1.2 1.9-1.3 2.3-4.2 0.9-5.9zM26.75 9.412h-3.5v-3.6h-1v3.6h-3.5v1h3.5v3.5h1v-3.5h3.5v-1z" fill="#000000"></path>
</svg>
