<?xml version="1.0" encoding="utf-8"?>
<!-- Generated by IcoMoon.io -->
<!DOCTYPE svg PUBLIC "-//W3C//DTD SVG 1.1//EN" "http://www.w3.org/Graphics/SVG/1.1/DTD/svg11.dtd">
<svg version="1.1" xmlns="http://www.w3.org/2000/svg" xmlns:xlink="http://www.w3.org/1999/xlink" width="32" height="32" viewBox="0 0 32 32">
<g id="icomoon-ignore">
</g>
<path d="M9.625 12.189v-3.267h0.562v3.267h-0.562zM8.676 9.906c0-0.316 0.105-0.386 0.281-0.597l0.281-0.351v3.267h-0.562v-2.318h-0zM10.538 12.189v-3.267h0.562v3.267h-0.562zM11.486 12.189v-3.267h0.562v3.267h-0.562zM13.243 14.999c0-1.733 0.913-2.599 2.74-2.599s2.74 0.866 2.74 2.599c0 1.733-0.913 2.599-2.74 2.599s-2.74-0.866-2.74-2.599h-0zM0 0h32v32h-32v-32zM24.031 13.344l-4.501 0.004c0.281 0.492 0.422 1.019 0.422 1.616 0 2.037-1.756 3.653-3.934 3.653s-3.934-1.651-3.934-3.653c0-0.562 0.141-1.124 0.421-1.616l-4.505-0.004 0.009 8.935c0 1.264 0.281 1.721 1.616 1.721h12.589c1.44 0 1.791-0.316 1.791-1.686zM12.54 14.999c0 1.756 1.546 3.232 3.442 3.232s3.442-1.44 3.442-3.232-1.546-3.232-3.442-3.232-3.442 1.44-3.442 3.232zM24.016 12.609v-3.021c0-1.405-0.386-1.581-1.686-1.581l-12.652-0.008c-1.229 0-1.686 0.386-1.686 1.967l0.005 2.784h4.93c0.702-0.843 1.827-1.405 3.091-1.405s2.389 0.421 3.091 1.264h4.907zM22.059 9.098c0.983 0 1.159 0.316 1.124 1.335v0.386c0 0.808-0.176 1.229-0.984 1.229h-1.475c-0.808 0-1.054-0.281-1.054-1.475 0-1.089 0.281-1.475 1.089-1.475l1.3 0z" fill="#000000"></path>
</svg>
