<?xml version="1.0" encoding="utf-8"?>
<!-- Generated by IcoMoon.io -->
<!DOCTYPE svg PUBLIC "-//W3C//DTD SVG 1.1//EN" "http://www.w3.org/Graphics/SVG/1.1/DTD/svg11.dtd">
<svg version="1.1" xmlns="http://www.w3.org/2000/svg" xmlns:xlink="http://www.w3.org/1999/xlink" width="32" height="32" viewBox="0 0 32 32">
<g id="icomoon-ignore">
</g>
<path d="M9.56 10.253v-1.118l-0.275 0.567c0.031 0.218 0.125 0.41 0.275 0.551v0zM11.028 9.704l-0.275-0.57v1.12c0.151-0.14 0.245-0.333 0.275-0.55v0zM11.666 11.029c-0.193 0.204-0.421 0.372-0.68 0.485l1.356 2.89 0.399 0.002h0.552l-1.627-3.378zM7.028 14.389l0.95 0.003 1.349-2.878c-0.259-0.115-0.488-0.282-0.68-0.487l-1.629 3.38h0.026l-0.016-0.018 0-0zM10.612 15.6h-0.902l0.449 0.5 0.453-0.5zM9.293 14.396l1.73 0.005-0.866-1.847-0.863 1.842zM8.516 16.053l-0.312 0.664h0.906l-0.594-0.664zM5.904 16.719h0.984l0.523-1.119h-0.967l-0.54 1.119zM26.445 4.001h-24.442v23.999h30.005v-18.733l-5.563-5.266zM16.352 18.001l-12.39-0.003 6.040-12.812 6.35 12.815zM30.021 26h-26.021v-2h26.021v2zM30 22h-26v-2h26v2zM30.010 18h-12.010v-1.999h12.010v1.999zM18 14v-2.005h12.010v2.005h-12.010zM13.87 15.6h-0.968l0.523 1.119h0.985l-0.54-1.119zM11.208 16.719h0.902l-0.309-0.657-0.592 0.657zM0.008 6.004h1.23v21.996h-1.23v-21.996z" fill="#000000"></path>
</svg>
