<?xml version="1.0" encoding="utf-8"?>
<!-- Generated by IcoMoon.io -->
<!DOCTYPE svg PUBLIC "-//W3C//DTD SVG 1.1//EN" "http://www.w3.org/Graphics/SVG/1.1/DTD/svg11.dtd">
<svg version="1.1" xmlns="http://www.w3.org/2000/svg" xmlns:xlink="http://www.w3.org/1999/xlink" width="32" height="32" viewBox="0 0 32 32">
<g id="icomoon-ignore">
</g>
<path d="M16.415 23.894c-4.378 0.25-8.131-3.002-8.382-7.381s3.002-8.131 7.381-8.382c1.626-0.125 3.253 0.375 4.629 1.126l5.629-5.63c-3.003-2.377-6.755-3.628-10.884-3.378-8.757 0.625-15.262 8.131-14.762 16.888 0.625 8.757 8.131 15.262 16.888 14.761 4.378-0.25 8.131-2.252 10.758-5.379l-5.504-5.629c-1.376 1.751-3.378 2.877-5.755 3.002v0h-0zM30 2l0.021 12.006-12.037-0.009 12.016-11.997z" fill="#000000"></path>
</svg>
