<?xml version="1.0" encoding="utf-8"?>
<!-- Generated by IcoMoon.io -->
<!DOCTYPE svg PUBLIC "-//W3C//DTD SVG 1.1//EN" "http://www.w3.org/Graphics/SVG/1.1/DTD/svg11.dtd">
<svg version="1.1" xmlns="http://www.w3.org/2000/svg" xmlns:xlink="http://www.w3.org/1999/xlink" width="31" height="32" viewBox="0 0 31 32">
<g id="icomoon-ignore">
</g>
<path d="M24.75 22c-0.792 2.021-2.475 2.967-4.434 3.579l6.292 6.291 3.921-3.921-5.779-5.95zM25.947 12.973c0-7.099-5.875-12.973-12.973-12.973s-12.973 5.875-12.973 12.973 5.875 12.973 12.973 12.973c7.099 0 12.973-5.875 12.973-12.973zM12.973 20.317c-4.039 0-7.343-3.305-7.343-7.343s3.305-7.343 7.343-7.343 7.343 3.305 7.343 7.343c-0 4.039-3.305 7.343-7.343 7.343z" fill="#000000"></path>
</svg>
