<?xml version="1.0" encoding="utf-8"?>
<!-- Generated by IcoMoon.io -->
<!DOCTYPE svg PUBLIC "-//W3C//DTD SVG 1.1//EN" "http://www.w3.org/Graphics/SVG/1.1/DTD/svg11.dtd">
<svg version="1.1" xmlns="http://www.w3.org/2000/svg" xmlns:xlink="http://www.w3.org/1999/xlink" width="32" height="32" viewBox="0 0 32 32">
<g id="icomoon-ignore">
</g>
<path d="M21.824 6.141c0.106 0.141 0.176 0.282 0.176 0.459v16.766c0 0.176-0.071 0.353-0.176 0.459-0.141 0.106-0.282 0.176-0.459 0.176l-10.733 0.007c-0.176 0-0.353-0.070-0.459-0.176-0.106-0.141-0.176-0.282-0.176-0.459l0.003-16.771c0-0.141 0.071-0.318 0.176-0.423 0.141-0.106 0.282-0.176 0.459-0.176l10.73-0.002c0-0 0.317 0.035 0.459 0.141zM16 24.885c0.423 0 0.811 0.176 1.094 0.459 0.317 0.282 0.459 0.67 0.459 1.094s-0.141 0.776-0.459 1.094c-0.282 0.318-0.67 0.459-1.094 0.459s-0.776-0.141-1.094-0.459c-0.318-0.282-0.459-0.67-0.459-1.094s0.141-0.776 0.459-1.094c0.282-0.317 0.67-0.459 1.094-0.459zM0 0h32v32h-32v-32zM24.021 4.54c0-0.706-0.247-1.305-0.741-1.799s-1.059-0.741-1.729-0.741h-11.081c-0.67 0-1.235 0.212-1.729 0.741s-0.741 1.094-0.741 1.799l0.009 22.899c0 0.706 0.247 1.305 0.741 1.799s1.058 0.741 1.729 0.741l11.073 0.021c0.67 0 1.235-0.247 1.729-0.741 0.494-0.529 0.741-1.094 0.741-1.799l-0.001-22.919z" fill="#000000"></path>
</svg>
