<?xml version="1.0" encoding="utf-8"?>
<!-- Generated by IcoMoon.io -->
<!DOCTYPE svg PUBLIC "-//W3C//DTD SVG 1.1//EN" "http://www.w3.org/Graphics/SVG/1.1/DTD/svg11.dtd">
<svg version="1.1" xmlns="http://www.w3.org/2000/svg" xmlns:xlink="http://www.w3.org/1999/xlink" width="32" height="32" viewBox="0 0 32 32">
<g id="icomoon-ignore">
</g>
<path d="M18.639 14.639c-4.055 0-7.262-3.301-7.262-7.262 0-2.169 0.943-4.055 2.452-5.376h-7.828v27.998l7.998-7.458 8.021 7.438-0.021-16.458c-0.938 0.896-2.323 1.119-3.36 1.119v0h-0zM18.639 1.342c-3.301 0-5.941 2.641-5.941 5.941s2.641 5.941 5.941 5.941c3.301 0 5.942-2.641 5.942-5.941s-2.641-5.941-5.942-5.941zM21.846 9.264l-1.32 1.32-1.886-1.98-1.98 1.98-1.226-1.226 1.98-1.981-1.98-1.98 1.226-1.226 1.98 1.981 1.98-1.981 1.226 1.226-1.98 1.981 1.98 1.886z" fill="#000000"></path>
</svg>
