<?xml version="1.0" encoding="utf-8"?>
<!-- Generator: Adobe Illustrator 15.1.0, SVG Export Plug-In . SVG Version: 6.00 Build 0)  -->
<!DOCTYPE svg PUBLIC "-//W3C//DTD SVG 1.1//EN" "http://www.w3.org/Graphics/SVG/1.1/DTD/svg11.dtd">
<svg version="1.1" id="Layer_1" xmlns="http://www.w3.org/2000/svg" xmlns:xlink="http://www.w3.org/1999/xlink" x="0px" y="0px"
	 width="547px" height="13.123px" viewBox="0 0 547 13.123" enable-background="new 0 0 547 13.123" xml:space="preserve">
<g>
	<defs>
		<polygon id="SVGID_1_" points="-15,13 547,13.123 547,0 -15,0.755 		"/>
	</defs>
	<clipPath id="SVGID_2_">
		<use xlink:href="#SVGID_1_"  overflow="visible"/>
	</clipPath>
	<g clip-path="url(#SVGID_2_)">
		<defs>
			<rect id="SVGID_3_" x="-37" y="-86.837" width="612" height="695.021"/>
		</defs>
		<clipPath id="SVGID_4_">
			<use xlink:href="#SVGID_3_"  overflow="visible"/>
		</clipPath>
		<defs>
			<filter id="Adobe_OpacityMaskFilter" filterUnits="userSpaceOnUse" x="-31" y="-7.857" width="593.71" height="581.606">
				<feColorMatrix  type="matrix" values="1 0 0 0 0  0 1 0 0 0  0 0 1 0 0  0 0 0 1 0"/>
			</filter>
		</defs>
		<mask maskUnits="userSpaceOnUse" x="-31" y="-7.857" width="593.71" height="581.606" id="SVGID_5_">
			<g filter="url(#Adobe_OpacityMaskFilter)">
				<rect x="-11.487" y="0.536" clip-path="url(#SVGID_4_)" width="561.197" height="492.479"/>
				<g enable-background="new    ">
					<g>
						<defs>
							<rect id="SVGID_6_" x="-11.487" y="0.536" width="561.197" height="492.479"/>
						</defs>
						<clipPath id="SVGID_7_" clip-path="url(#SVGID_4_)">
							<use xlink:href="#SVGID_6_"  overflow="visible"/>
						</clipPath>
						
							<linearGradient id="SVGID_8_" gradientUnits="userSpaceOnUse" x1="-42.0073" y1="765.8301" x2="-41.0073" y2="765.8301" gradientTransform="matrix(-635.0427 0 0 635.0427 -26104.7949 -486080.7188)">
							<stop  offset="0" style="stop-color:#FFFFFF"/>
							<stop  offset="1" style="stop-color:#000000"/>
						</linearGradient>
						<rect x="-63.111" y="-8.765" clip-path="url(#SVGID_7_)" fill="url(#SVGID_8_)" width="635.042" height="525.031"/>
					</g>
				</g>
			</g>
		</mask>
		<g clip-path="url(#SVGID_4_)" mask="url(#SVGID_5_)">
			<g>
				<defs>
					<polyline id="SVGID_9_" points="-30.487,23.735 553,23.735 553,-7.857 -31,-7.857 					"/>
				</defs>
				<clipPath id="SVGID_10_">
					<use xlink:href="#SVGID_9_"  overflow="visible"/>
				</clipPath>
				<polygon clip-path="url(#SVGID_10_)" fill="#B5BDC1" points="16.573,12.848 2.542,0.536 -11.487,12.848 				"/>
				<path clip-path="url(#SVGID_10_)" fill="#B5BDC1" d="M-11.488,12.848"/>
				<polygon clip-path="url(#SVGID_10_)" fill="#B5BDC1" points="44.633,12.848 30.602,0.536 16.573,12.848 				"/>
				<polygon clip-path="url(#SVGID_10_)" fill="#B5BDC1" points="72.693,12.848 58.662,0.536 44.633,12.848 				"/>
				<polygon clip-path="url(#SVGID_10_)" fill="#B5BDC1" points="100.753,12.848 86.722,0.536 72.693,12.848 				"/>
				<polygon clip-path="url(#SVGID_10_)" fill="#B5BDC1" points="128.812,12.848 114.781,0.536 100.752,12.848 				"/>
				<polygon clip-path="url(#SVGID_10_)" fill="#B5BDC1" points="156.872,12.848 142.841,0.536 128.812,12.848 				"/>
				<polygon clip-path="url(#SVGID_10_)" fill="#B5BDC1" points="184.932,12.848 170.901,0.536 156.872,12.848 				"/>
				<polygon clip-path="url(#SVGID_10_)" fill="#B5BDC1" points="212.992,12.848 198.961,0.536 184.932,12.848 				"/>
				<polygon clip-path="url(#SVGID_10_)" fill="#B5BDC1" points="241.052,12.848 227.021,0.536 212.992,12.848 				"/>
				<polygon clip-path="url(#SVGID_10_)" fill="#B5BDC1" points="269.111,12.848 255.081,0.536 241.052,12.848 				"/>
				<polygon clip-path="url(#SVGID_10_)" fill="#B5BDC1" points="297.172,12.848 283.142,0.536 269.111,12.848 				"/>
				<polygon clip-path="url(#SVGID_10_)" fill="#B5BDC1" points="325.231,12.848 311.201,0.536 297.171,12.848 				"/>
				<polygon clip-path="url(#SVGID_10_)" fill="#B5BDC1" points="353.291,12.848 339.261,0.536 325.231,12.848 				"/>
				<polygon clip-path="url(#SVGID_10_)" fill="#B5BDC1" points="381.351,12.848 367.321,0.536 353.291,12.848 				"/>
				<polygon clip-path="url(#SVGID_10_)" fill="#B5BDC1" points="409.411,12.848 395.381,0.536 381.351,12.848 				"/>
				<polygon clip-path="url(#SVGID_10_)" fill="#B5BDC1" points="437.471,12.848 423.44,0.536 409.41,12.848 				"/>
				<polygon clip-path="url(#SVGID_10_)" fill="#B5BDC1" points="465.53,12.848 451.5,0.536 437.471,12.848 				"/>
				<polygon clip-path="url(#SVGID_10_)" fill="#B5BDC1" points="493.59,12.848 479.561,0.536 465.53,12.848 				"/>
				<polygon clip-path="url(#SVGID_10_)" fill="#B5BDC1" points="521.65,12.848 507.62,0.536 493.59,12.848 				"/>
				<polygon clip-path="url(#SVGID_10_)" fill="#B5BDC1" points="549.71,12.848 535.68,0.536 521.649,12.848 				"/>
				<path clip-path="url(#SVGID_10_)" fill="#B5BDC1" d="M16.572,12.848"/>
				<path clip-path="url(#SVGID_10_)" fill="#B5BDC1" d="M44.632,12.848"/>
				<path clip-path="url(#SVGID_10_)" fill="#B5BDC1" d="M72.692,12.848"/>
				<path clip-path="url(#SVGID_10_)" fill="#B5BDC1" d="M100.751,12.848"/>
				<path clip-path="url(#SVGID_10_)" fill="#B5BDC1" d="M128.812,12.848"/>
				<path clip-path="url(#SVGID_10_)" fill="#B5BDC1" d="M156.871,12.848"/>
				<path clip-path="url(#SVGID_10_)" fill="#B5BDC1" d="M184.931,12.848"/>
				<path clip-path="url(#SVGID_10_)" fill="#B5BDC1" d="M212.991,12.848"/>
				<path clip-path="url(#SVGID_10_)" fill="#B5BDC1" d="M548.68,105.895"/>
				<line clip-path="url(#SVGID_10_)" fill="#B5BDC1" x1="562.71" y1="118.207" x2="548.68" y2="105.895"/>
				<path clip-path="url(#SVGID_10_)" fill="#B5BDC1" d="M548.68,499.877"/>
				<polygon clip-path="url(#SVGID_10_)" fill="#B5BDC1" points="562.71,499.877 562.71,487.564 548.68,499.877 				"/>
				<line clip-path="url(#SVGID_10_)" fill="#B5BDC1" x1="562.71" y1="512.189" x2="548.68" y2="499.877"/>
				<path clip-path="url(#SVGID_10_)" fill="#B5BDC1" d="M548.68,524.501"/>
				<polygon clip-path="url(#SVGID_10_)" fill="#B5BDC1" points="562.71,524.501 562.71,512.189 548.68,524.501 				"/>
				<line clip-path="url(#SVGID_10_)" fill="#B5BDC1" x1="562.71" y1="536.813" x2="548.68" y2="524.501"/>
				<path clip-path="url(#SVGID_10_)" fill="#B5BDC1" d="M548.68,549.125"/>
				<polygon clip-path="url(#SVGID_10_)" fill="#B5BDC1" points="562.71,549.125 562.71,536.813 548.68,549.125 				"/>
				<line clip-path="url(#SVGID_10_)" fill="#B5BDC1" x1="1.513" y1="573.749" x2="15.543" y2="573.749"/>
				<line clip-path="url(#SVGID_10_)" fill="#B5BDC1" x1="562.71" y1="561.437" x2="548.68" y2="549.125"/>
				<line clip-path="url(#SVGID_10_)" fill="#B5BDC1" x1="15.543" y1="573.749" x2="43.603" y2="573.749"/>
				<line clip-path="url(#SVGID_10_)" fill="#B5BDC1" x1="43.603" y1="573.749" x2="71.663" y2="573.749"/>
				<line clip-path="url(#SVGID_10_)" fill="#B5BDC1" x1="71.663" y1="573.749" x2="99.723" y2="573.749"/>
				<line clip-path="url(#SVGID_10_)" fill="#B5BDC1" x1="99.723" y1="573.749" x2="127.783" y2="573.749"/>
				<line clip-path="url(#SVGID_10_)" fill="#B5BDC1" x1="127.782" y1="573.749" x2="155.842" y2="573.749"/>
				<line clip-path="url(#SVGID_10_)" fill="#B5BDC1" x1="155.842" y1="573.749" x2="183.902" y2="573.749"/>
				<line clip-path="url(#SVGID_10_)" fill="#B5BDC1" x1="183.902" y1="573.749" x2="211.962" y2="573.749"/>
				<line clip-path="url(#SVGID_10_)" fill="#B5BDC1" x1="211.962" y1="573.749" x2="240.022" y2="573.749"/>
				<line clip-path="url(#SVGID_10_)" fill="#B5BDC1" x1="240.021" y1="573.749" x2="268.082" y2="573.749"/>
				<line clip-path="url(#SVGID_10_)" fill="#B5BDC1" x1="268.082" y1="573.749" x2="296.142" y2="573.749"/>
				<line clip-path="url(#SVGID_10_)" fill="#B5BDC1" x1="296.142" y1="573.749" x2="324.201" y2="573.749"/>
				<line clip-path="url(#SVGID_10_)" fill="#B5BDC1" x1="324.201" y1="573.749" x2="352.261" y2="573.749"/>
				<line clip-path="url(#SVGID_10_)" fill="#B5BDC1" x1="352.261" y1="573.749" x2="380.321" y2="573.749"/>
				<line clip-path="url(#SVGID_10_)" fill="#B5BDC1" x1="380.321" y1="573.749" x2="408.381" y2="573.749"/>
				<line clip-path="url(#SVGID_10_)" fill="#B5BDC1" x1="408.381" y1="573.749" x2="436.44" y2="573.749"/>
				<line clip-path="url(#SVGID_10_)" fill="#B5BDC1" x1="436.44" y1="573.749" x2="464.5" y2="573.749"/>
				<line clip-path="url(#SVGID_10_)" fill="#B5BDC1" x1="464.5" y1="573.749" x2="492.561" y2="573.749"/>
				<line clip-path="url(#SVGID_10_)" fill="#B5BDC1" x1="492.561" y1="573.749" x2="520.62" y2="573.749"/>
				<line clip-path="url(#SVGID_10_)" fill="#B5BDC1" x1="520.62" y1="573.749" x2="548.68" y2="573.749"/>
				<polygon clip-path="url(#SVGID_10_)" fill="#B5BDC1" points="562.71,573.749 562.71,561.437 548.68,573.749 				"/>
			</g>
		</g>
	</g>
</g>
</svg>
