<svg xmlns="http://www.w3.org/2000/svg" viewBox="0 0 400 40" height="24"><path fill="#FFF" d="M10.07 22.697c0 1.137.1 1.98.307 2.526.197.54.537 1.032 1.008 1.465H5.303c.48-.433.822-.925 1.018-1.465.2-.548.297-1.39.297-2.526V6.63H4.825c-1.23 0-2.23.095-2.992.287-.766.195-1.38.506-1.833.937L1.098 4.16h15.834l-1.038 3.63c-.33-.397-.763-.692-1.298-.88-.54-.19-1.216-.28-2.032-.28h-2.492v16.067zM22.094 23.158c0 1.01.092 1.763.263 2.25.178.485.478.924.9 1.308h-5.423c.413-.384.71-.822.892-1.31.18-.485.27-1.238.27-2.248v-13.01c0-1.015-.09-1.763-.27-2.246-.18-.482-.48-.912-.892-1.288h5.424c-.424.376-.724.806-.9 1.288-.172.483-.264 1.23-.264 2.246v4.5h10.654v-4.5c0-1.015-.092-1.763-.265-2.246-.176-.482-.476-.912-.902-1.288h5.428c-.416.376-.713.806-.892 1.288-.18.483-.27 1.23-.27 2.246v13.01c0 1.01.086 1.763.262 2.25.175.485.478.924.9 1.308H31.58c.427-.384.727-.822.902-1.31.173-.485.265-1.238.265-2.248v-6.19H22.094v6.19zM39.64 26.716c.418-.384.714-.822.893-1.31.182-.485.27-1.24.27-2.25V10.16c0-1.017-.088-1.768-.27-2.253-.18-.484-.475-.914-.892-1.293h10.834v3.173c-.48-.392-1.017-.673-1.594-.85-.58-.173-1.25-.26-2.004-.26-.392 0-.83.028-1.312.094-.486.063-1.026.16-1.638.285v5.663h4.86v2.922c-.232-.27-.54-.465-.93-.575-.39-.11-1.105-.168-2.14-.168h-1.79v7.207c.75.113 1.43.197 2.038.256.608.06 1.132.088 1.578.088 1.008 0 1.957-.137 2.85-.41.89-.272 1.772-.694 2.635-1.255l-1.384 3.933H39.64zM78.303 26.68v-1.696c-1.08.783-2.168 1.37-3.26 1.754-1.098.384-2.214.58-3.335.58-1.284 0-2.433-.218-3.438-.645-1.006-.43-1.876-1.073-2.605-1.938-.573-.676-.984-1.465-1.232-2.363s-.373-2.107-.373-3.623V8.2c0-1.13-.103-1.966-.292-2.502-.2-.54-.527-1.018-.994-1.438H68.8c-.462.42-.795.898-.987 1.438-.196.536-.292 1.373-.292 2.503v9.853c0 1.538.074 2.682.22 3.425.146.74.4 1.337.75 1.775.42.527.982.923 1.69 1.19.7.26 1.538.393 2.517.393.8 0 1.57-.12 2.27-.366.698-.238 1.312-.592 1.84-1.056.47-.387.8-.89 1.005-1.51.197-.62.3-1.46.3-2.527V8.2c0-1.174-.097-2.02-.29-2.544-.193-.52-.523-.986-.993-1.396h6.075c-.474.41-.806.898-1.01 1.47-.2.57-.3 1.395-.3 2.472V22.72c0 1.13.1 1.963.3 2.505.204.543.536 1.027 1.01 1.457h-4.602zM104.953 6.614c-.43.376-.73.806-.902 1.288-.175.482-.262 1.23-.262 2.243v17.038c-.69-.02-1.35-.246-1.97-.682-.62-.434-1.398-1.262-2.336-2.476L89.26 10.94v12.215c0 1.053.087 1.814.26 2.29.167.47.465.897.884 1.27H85.91c.418-.383.718-.82.894-1.308.182-.486.27-1.24.27-2.252v-13.01c0-1.014-.088-1.76-.27-2.243-.176-.482-.476-.912-.895-1.288h4.02l11.715 15.096V10.146c0-1.014-.092-1.76-.268-2.243-.18-.482-.48-.912-.895-1.288h4.47zM112.456 23.155c0 1.013.086 1.766.263 2.252.175.486.472.925.898 1.31h-5.427c.428-.385.726-.823.903-1.31.173-.486.26-1.24.26-2.252v-13.01c0-1.014-.087-1.76-.26-2.243-.178-.482-.476-.912-.902-1.288h5.428c-.427.376-.724.806-.9 1.288-.176.482-.262 1.23-.262 2.243v13.01zM125.11 27.227c-.843-.222-1.567-.706-2.162-1.457-.6-.746-1.15-1.863-1.656-3.35l-4.01-11.708c-.323-.968-.63-1.754-.918-2.36-.286-.608-.616-1.19-.973-1.737l4.093.014c.02.327.05.633.103.91.044.28.104.547.182.798l4.82 14.385 4.56-11.98c.132-.37.24-.74.32-1.11.08-.368.122-.71.122-1.02 0-.27-.08-.557-.23-.86-.153-.304-.404-.685-.768-1.137h4.54l-8.02 20.61zM134.512 26.716c.416-.384.72-.822.895-1.31.18-.485.273-1.24.273-2.25V10.16c0-1.017-.093-1.768-.273-2.253-.176-.484-.48-.914-.895-1.293h10.833v3.173c-.48-.392-1.01-.673-1.592-.85-.58-.173-1.246-.26-2.01-.26-.386 0-.823.028-1.302.094-.488.063-1.034.16-1.64.285v5.663h4.857v2.922c-.227-.27-.54-.465-.93-.575-.39-.11-1.103-.168-2.14-.168h-1.788v7.207c.754.113 1.43.197 2.037.256.608.06 1.133.088 1.582.088 1 0 1.95-.137 2.842-.41.893-.272 1.773-.694 2.638-1.255l-1.384 3.933h-12.004zM153.54 23.158c0 1.01.087 1.763.265 2.25.173.485.473.924.897 1.308h-5.428c.417-.384.714-.822.895-1.31.18-.485.267-1.238.267-2.248V10.152c0-1.014-.086-1.764-.268-2.247-.182-.484-.48-.914-.896-1.29h6.854c1.952 0 3.53.472 4.73 1.417 1.2.948 1.805 2.18 1.805 3.692 0 1.1-.36 2.072-1.086 2.91-.725.84-1.843 1.58-3.362 2.217l5.145 6.96c.3.413.67.855 1.095 1.315.427.465.92.946 1.464 1.446l-1.536.145h-.242c-.72 0-1.423-.19-2.11-.578-.683-.385-1.26-.917-1.734-1.59l-5.892-8.25c1.757-.4 3.032-.943 3.85-1.633.81-.69 1.213-1.58 1.213-2.674 0-1.013-.345-1.84-1.045-2.476-.694-.64-1.607-.956-2.735-.956-.257 0-.564.02-.927.063-.36.046-.768.11-1.222.197v14.34zM166.883 26.268l-.94-3.65c1.145.782 2.265 1.364 3.34 1.743 1.087.383 2.16.575 3.223.575 1.356 0 2.445-.296 3.274-.89.82-.595 1.235-1.365 1.235-2.31 0-.27-.042-.542-.13-.812-.083-.27-.2-.525-.37-.765-.355-.55-1.566-1.34-3.628-2.36-.52-.252-.924-.45-1.21-.594-1.925-.985-3.25-1.895-3.962-2.723-.72-.828-1.077-1.815-1.077-2.954 0-1.632.66-2.93 1.97-3.888 1.307-.96 3.106-1.44 5.387-1.44.655 0 1.374.042 2.165.13.788.086 1.644.22 2.567.405v3.38c-.817-.634-1.638-1.102-2.466-1.412-.827-.31-1.685-.464-2.576-.464-1.13 0-2.04.244-2.73.74-.688.49-1.034 1.134-1.034 1.925 0 .707.275 1.332.818 1.872.534.54 1.747 1.266 3.633 2.174.107.05.27.124.49.23 1.59.742 2.782 1.432 3.575 2.056.584.463 1.044 1.028 1.37 1.692.333.666.49 1.376.49 2.13 0 1.73-.775 3.19-2.334 4.396-1.557 1.2-3.5 1.8-5.836 1.8-.752 0-1.555-.083-2.42-.245-.87-.165-1.807-.41-2.82-.737zM187.25 23.155c0 1.013.09 1.766.267 2.252.176.486.475.925.902 1.31h-5.435c.427-.385.73-.823.904-1.31.174-.486.264-1.24.264-2.252v-13.01c0-1.014-.09-1.76-.265-2.243-.175-.482-.48-.912-.905-1.288h5.434c-.43.376-.728.806-.903 1.288-.178.482-.267 1.23-.267 2.243v13.01zM279.09 7.19l-3.28 8.367h6.487L279.09 7.19zm.377-7.19l1.79 4.36 6.8 17.036c.75 1.89 1.338 3.752 3.2 4.702v.104h-6.703v-.104c1.605-.724 1.34-1.086.462-3.405l-1.765-4.682h-8.297l-1.697 4.683c-.69 1.857-.916 2.814.65 3.405v.104h-6.013v-.104c1.89-.95 2.453-2.812 3.167-4.702L279.466.134V0zM237.47 7.778c-2.2 0-4.022.768-5.45 2.3-1.432 1.536-2.145 3.495-2.145 5.88 0 2.462.708 4.502 2.124 6.13 1.412 1.628 3.18 2.438 5.302 2.438 2.192 0 4.006-.768 5.438-2.31 1.425-1.537 2.136-3.502 2.136-5.897 0-2.466-.702-4.5-2.12-6.114-1.416-1.622-3.178-2.428-5.287-2.428zm-.11 18.91c-1.514 0-2.935-.243-4.27-.735-1.333-.49-2.48-1.19-3.44-2.103-1.01-.962-1.785-2.103-2.334-3.41-.546-1.31-.814-2.683-.814-4.12 0-1.13.173-2.226.52-3.287.348-1.06.853-2.055 1.518-2.974 1.032-1.417 2.314-2.506 3.838-3.266 1.524-.768 3.19-1.146 4.984-1.146 1.538 0 2.98.244 4.31.732 1.34.484 2.482 1.188 3.442 2.105 1.026.968 1.808 2.106 2.352 3.425.544 1.316.812 2.738.812 4.263 0 1.4-.305 2.77-.91 4.116-.61 1.343-1.464 2.527-2.567 3.56-.986.936-2.116 1.638-3.378 2.12-1.266.478-2.617.718-4.06.718zM254.195 22.656c0 1.016.083 1.762.26 2.248.178.48.48.92.908 1.3h-5.43c.417-.38.715-.818.894-1.3.18-.486.27-1.232.27-2.248V9.66c0-1.017-.092-1.768-.27-2.255-.18-.48-.477-.913-.895-1.292h10.847v3.174c-.483-.395-1.012-.676-1.59-.854-.58-.173-1.253-.26-2.017-.26-.396 0-.83.032-1.317.096-.486.06-1.03.158-1.638.287v5.66h4.876v2.92c-.23-.272-.54-.466-.933-.573-.39-.114-1.112-.168-2.155-.168h-1.81v6.26zM296.974 22.66c0 1.012.09 1.76.265 2.244.175.48.475.92.9 1.3h-5.43c.417-.38.717-.818.896-1.3.18-.483.27-1.232.27-2.243V9.65c0-1.018-.09-1.764-.27-2.25-.18-.48-.48-.914-.895-1.287h6.853c1.954 0 3.53.47 4.735 1.416 1.197.945 1.798 2.18 1.798 3.69 0 1.102-.356 2.072-1.08 2.912-.723.84-1.845 1.576-3.364 2.214l5.142 6.963c.306.416.668.853 1.1 1.312.428.46.91.94 1.465 1.438l-1.538.143h-.244c-.72 0-1.42-.188-2.105-.575-.686-.38-1.265-.91-1.737-1.578l-5.893-8.258c1.75-.397 3.035-.938 3.846-1.63.808-.692 1.216-1.582 1.216-2.67 0-1.018-.35-1.844-1.046-2.48-.69-.635-1.605-.96-2.735-.96-.257 0-.567.027-.925.07-.36.04-.767.108-1.224.195V22.66h-.002zM315.317 22.656c0 1.016.084 1.765.26 2.248.173.48.476.92.903 1.3h-5.428c.422-.38.722-.818.897-1.3.175-.483.264-1.232.264-2.248V9.644c0-1.017-.09-1.76-.265-2.243-.177-.48-.477-.913-.898-1.286h5.428c-.428.373-.73.806-.903 1.287-.176.484-.26 1.228-.26 2.244v13.012zM335.397 22.445l-1.44 3.76h-15.44l10.537-17.507c-.783-.2-1.53-.353-2.228-.45-.7-.097-1.346-.145-1.945-.145-.873 0-1.72.107-2.53.33-.81.216-1.637.56-2.483 1.037l1.365-3.357h12.84l-10.53 17.5c1.17.135 2.15.23 2.953.29.792.06 1.483.094 2.065.094 1.364 0 2.618-.13 3.746-.39 1.127-.26 2.156-.645 3.09-1.162zM346.91 7.778c-2.207 0-4.028.768-5.455 2.3-1.428 1.536-2.146 3.495-2.146 5.88 0 2.462.712 4.502 2.126 6.13s3.182 2.438 5.3 2.438c2.195 0 4.007-.768 5.44-2.31 1.427-1.537 2.14-3.502 2.14-5.897 0-2.466-.705-4.5-2.118-6.114-1.42-1.622-3.18-2.428-5.29-2.428zm-.11 18.91c-1.516 0-2.934-.243-4.27-.735-1.338-.49-2.483-1.19-3.443-2.103-1.006-.962-1.784-2.103-2.33-3.41-.546-1.31-.816-2.683-.816-4.12 0-1.13.17-2.226.52-3.287.342-1.06.85-2.055 1.515-2.974 1.038-1.417 2.324-2.506 3.843-3.266 1.525-.768 3.187-1.146 4.984-1.146 1.54 0 2.974.244 4.31.732 1.334.484 2.48 1.188 3.442 2.105 1.027.968 1.806 2.106 2.352 3.425.54 1.316.81 2.738.81 4.263 0 1.4-.302 2.77-.912 4.116-.605 1.343-1.465 2.527-2.562 3.56-.99.936-2.116 1.638-3.378 2.12-1.268.478-2.626.718-4.063.718zM378.365 6.113c-.43.373-.73.806-.9 1.287-.18.483-.264 1.227-.264 2.243v17.023c-.693-.02-1.35-.246-1.97-.676-.62-.433-1.398-1.254-2.336-2.465l-10.22-13.088v12.218c0 1.054.087 1.816.257 2.283.17.468.463.893.882 1.265h-4.49c.415-.38.712-.818.894-1.3.18-.483.272-1.232.272-2.248V9.645c0-1.018-.092-1.76-.272-2.244-.182-.48-.48-.913-.893-1.286h4.014L375.06 21.21V9.644c0-1.017-.095-1.76-.273-2.243-.18-.48-.477-.913-.895-1.286h4.473zM385.67 16.67h5.837l-2.8-7.767-3.037 7.768zm-2.676 6.827c-.093.202-.158.413-.198.63-.04.216-.06.437-.06.667 0 .19.062.405.2.633.144.23.36.488.668.777h-4.676c.385-.267.736-.635 1.045-1.105.31-.474.626-1.114.95-1.936l5.57-14.348c.114-.27.2-.535.258-.795.058-.258.085-.49.085-.69 0-.235-.054-.45-.158-.64-.11-.192-.293-.385-.538-.577h4.504l6.302 16.85c.292.76.61 1.38.948 1.855.343.473.774.938 1.306 1.386h-5.68l.072-.072c.526-.557.785-.963.785-1.222 0-.308-.113-.757-.34-1.357l-.072-.216-1.697-4.65h-7.384l-1.89 4.81zM206.503 6.584l5.155 8.762 3.464-5.705c.21-.35.373-.663.482-.95.104-.284.16-.528.16-.733 0-.23-.066-.458-.205-.684-.142-.23-.347-.458-.64-.688h4.637l-6.8 11.065v5.488c0 1.014.088 1.767.267 2.254.186.49.48.924.897 1.308h-5.46c.43-.384.73-.816.903-1.308.174-.487.267-1.24.267-2.254l.006-5.547-4.658-7.667c-.468-.687-.814-.79-1.266-.953-.48-.17-1.287-.186-2.024-.186h-2.222V23.14c0 1.012.087 1.765.27 2.252.184.49.477.924.9 1.308H195.2c.424-.384.725-.816.903-1.308.17-.487.257-1.24.257-2.252V8.784h-1.59c-1.103 0-1.997.086-2.678.262-.686.173-1.23.454-1.644.84l.987-3.302h15.068z"/></svg>